<mxfile host="app.diagrams.net" modified="2023-11-01T17:14:06.975Z" agent="Mozilla/5.0 (Macintosh; Intel Mac OS X 10_15_7) AppleWebKit/537.36 (KHTML, like Gecko) Chrome/118.0.0.0 Safari/537.36" etag="nebK2NgS5V0uGDX7EEqN" version="22.0.8" type="github">
  <diagram name="Page-1" id="7xt4pQumDP3tBfooaIeJ">
    <mxGraphModel dx="1212" dy="758" grid="1" gridSize="10" guides="1" tooltips="1" connect="1" arrows="1" fold="1" page="1" pageScale="1" pageWidth="1100" pageHeight="850" math="0" shadow="0">
      <root>
        <mxCell id="0" />
        <mxCell id="1" parent="0" />
        <mxCell id="5_k-YT-q-z1sVr0RyAKI-33" value="" style="whiteSpace=wrap;html=1;shape=mxgraph.basic.cloud_rect" parent="1" vertex="1">
          <mxGeometry x="30" y="70" width="1040" height="750" as="geometry" />
        </mxCell>
        <mxCell id="5_k-YT-q-z1sVr0RyAKI-32" value="VPC" style="points=[[0,0],[0.25,0],[0.5,0],[0.75,0],[1,0],[1,0.25],[1,0.5],[1,0.75],[1,1],[0.75,1],[0.5,1],[0.25,1],[0,1],[0,0.75],[0,0.5],[0,0.25]];outlineConnect=0;gradientColor=none;html=1;whiteSpace=wrap;fontSize=12;fontStyle=0;container=1;pointerEvents=0;collapsible=0;recursiveResize=0;shape=mxgraph.aws4.group;grIcon=mxgraph.aws4.group_vpc;strokeColor=#248814;fillColor=none;verticalAlign=top;align=left;spacingLeft=30;fontColor=#AAB7B8;dashed=0;" parent="1" vertex="1">
          <mxGeometry x="90" y="120" width="840" height="640" as="geometry" />
        </mxCell>
        <mxCell id="5_k-YT-q-z1sVr0RyAKI-35" value="Availability Zone 2" style="fillColor=none;strokeColor=#147EBA;dashed=1;verticalAlign=top;fontStyle=0;fontColor=#147EBA;whiteSpace=wrap;html=1;" parent="5_k-YT-q-z1sVr0RyAKI-32" vertex="1">
          <mxGeometry x="460" y="-30" width="350" height="700" as="geometry" />
        </mxCell>
        <mxCell id="5_k-YT-q-z1sVr0RyAKI-34" value="Availability Zone 1" style="fillColor=none;strokeColor=#147EBA;dashed=1;verticalAlign=top;fontStyle=0;fontColor=#147EBA;whiteSpace=wrap;html=1;" parent="5_k-YT-q-z1sVr0RyAKI-32" vertex="1">
          <mxGeometry x="30" y="-30" width="350" height="700" as="geometry" />
        </mxCell>
        <mxCell id="5_k-YT-q-z1sVr0RyAKI-39" value="Private subnet" style="points=[[0,0],[0.25,0],[0.5,0],[0.75,0],[1,0],[1,0.25],[1,0.5],[1,0.75],[1,1],[0.75,1],[0.5,1],[0.25,1],[0,1],[0,0.75],[0,0.5],[0,0.25]];outlineConnect=0;gradientColor=none;html=1;whiteSpace=wrap;fontSize=12;fontStyle=0;container=1;pointerEvents=0;collapsible=0;recursiveResize=0;shape=mxgraph.aws4.group;grIcon=mxgraph.aws4.group_security_group;grStroke=0;strokeColor=#147EBA;fillColor=#E6F2F8;verticalAlign=top;align=left;spacingLeft=30;fontColor=#147EBA;dashed=0;" parent="5_k-YT-q-z1sVr0RyAKI-32" vertex="1">
          <mxGeometry x="500" y="330" width="270" height="270" as="geometry" />
        </mxCell>
        <mxCell id="jHHWez1aKjKvFsPRnYN8-4" value="&lt;font color=&quot;#007fff&quot;&gt;10.0.0.0/19&lt;/font&gt;" style="text;html=1;align=center;verticalAlign=middle;resizable=0;points=[];autosize=1;strokeColor=none;fillColor=none;" vertex="1" parent="5_k-YT-q-z1sVr0RyAKI-39">
          <mxGeometry x="95" y="240" width="80" height="30" as="geometry" />
        </mxCell>
        <mxCell id="5_k-YT-q-z1sVr0RyAKI-66" value="" style="endArrow=classic;html=1;rounded=0;strokeColor=#000000;strokeWidth=2;" parent="5_k-YT-q-z1sVr0RyAKI-39" edge="1">
          <mxGeometry width="50" height="50" relative="1" as="geometry">
            <mxPoint x="-58" y="135" as="sourcePoint" />
            <mxPoint x="60" y="135" as="targetPoint" />
          </mxGeometry>
        </mxCell>
        <mxCell id="5_k-YT-q-z1sVr0RyAKI-110" value="DB writers" style="text;html=1;align=center;verticalAlign=middle;resizable=0;points=[];autosize=1;strokeColor=none;fillColor=none;" parent="5_k-YT-q-z1sVr0RyAKI-39" vertex="1">
          <mxGeometry x="44" y="220" width="80" height="30" as="geometry" />
        </mxCell>
        <mxCell id="jHHWez1aKjKvFsPRnYN8-17" value="" style="image;aspect=fixed;html=1;points=[];align=center;fontSize=12;image=img/lib/azure2/databases/Azure_Database_PostgreSQL_Server.svg;" vertex="1" parent="5_k-YT-q-z1sVr0RyAKI-39">
          <mxGeometry x="60" y="100" width="48" height="64" as="geometry" />
        </mxCell>
        <mxCell id="5_k-YT-q-z1sVr0RyAKI-38" value="Private subnet" style="points=[[0,0],[0.25,0],[0.5,0],[0.75,0],[1,0],[1,0.25],[1,0.5],[1,0.75],[1,1],[0.75,1],[0.5,1],[0.25,1],[0,1],[0,0.75],[0,0.5],[0,0.25]];outlineConnect=0;gradientColor=none;html=1;whiteSpace=wrap;fontSize=12;fontStyle=0;container=1;pointerEvents=0;collapsible=0;recursiveResize=0;shape=mxgraph.aws4.group;grIcon=mxgraph.aws4.group_security_group;grStroke=0;strokeColor=#147EBA;fillColor=#E6F2F8;verticalAlign=top;align=left;spacingLeft=30;fontColor=#147EBA;dashed=0;" parent="5_k-YT-q-z1sVr0RyAKI-32" vertex="1">
          <mxGeometry x="70" y="330" width="270" height="270" as="geometry" />
        </mxCell>
        <mxCell id="5_k-YT-q-z1sVr0RyAKI-31" value="Public subnet" style="points=[[0,0],[0.25,0],[0.5,0],[0.75,0],[1,0],[1,0.25],[1,0.5],[1,0.75],[1,1],[0.75,1],[0.5,1],[0.25,1],[0,1],[0,0.75],[0,0.5],[0,0.25]];outlineConnect=0;gradientColor=none;html=1;whiteSpace=wrap;fontSize=12;fontStyle=0;container=1;pointerEvents=0;collapsible=0;recursiveResize=0;shape=mxgraph.aws4.group;grIcon=mxgraph.aws4.group_security_group;grStroke=0;strokeColor=#248814;fillColor=#E9F3E6;verticalAlign=top;align=left;spacingLeft=30;fontColor=#248814;dashed=0;" parent="5_k-YT-q-z1sVr0RyAKI-32" vertex="1">
          <mxGeometry x="70" y="30" width="270" height="250" as="geometry" />
        </mxCell>
        <mxCell id="jHHWez1aKjKvFsPRnYN8-1" value="&lt;font color=&quot;#009900&quot;&gt;10.0.128.0/20&lt;/font&gt;" style="text;html=1;align=center;verticalAlign=middle;resizable=0;points=[];autosize=1;strokeColor=none;fillColor=none;" vertex="1" parent="5_k-YT-q-z1sVr0RyAKI-31">
          <mxGeometry x="85" y="220" width="100" height="30" as="geometry" />
        </mxCell>
        <mxCell id="5_k-YT-q-z1sVr0RyAKI-37" value="Public subnet" style="points=[[0,0],[0.25,0],[0.5,0],[0.75,0],[1,0],[1,0.25],[1,0.5],[1,0.75],[1,1],[0.75,1],[0.5,1],[0.25,1],[0,1],[0,0.75],[0,0.5],[0,0.25]];outlineConnect=0;gradientColor=none;html=1;whiteSpace=wrap;fontSize=12;fontStyle=0;container=1;pointerEvents=0;collapsible=0;recursiveResize=0;shape=mxgraph.aws4.group;grIcon=mxgraph.aws4.group_security_group;grStroke=0;strokeColor=#248814;fillColor=#E9F3E6;verticalAlign=top;align=left;spacingLeft=30;fontColor=#248814;dashed=0;" parent="5_k-YT-q-z1sVr0RyAKI-32" vertex="1">
          <mxGeometry x="500" y="30" width="272" height="250" as="geometry" />
        </mxCell>
        <mxCell id="5_k-YT-q-z1sVr0RyAKI-43" value="NAT Gateway" style="text;html=1;align=center;verticalAlign=middle;resizable=0;points=[];autosize=1;strokeColor=none;fillColor=none;" parent="5_k-YT-q-z1sVr0RyAKI-37" vertex="1">
          <mxGeometry x="152" y="160" width="100" height="30" as="geometry" />
        </mxCell>
        <mxCell id="5_k-YT-q-z1sVr0RyAKI-23" value="" style="sketch=0;outlineConnect=0;fontColor=#232F3E;gradientColor=none;fillColor=#8C4FFF;strokeColor=none;dashed=0;verticalLabelPosition=bottom;verticalAlign=top;align=center;html=1;fontSize=12;fontStyle=0;aspect=fixed;pointerEvents=1;shape=mxgraph.aws4.nat_gateway;" parent="5_k-YT-q-z1sVr0RyAKI-32" vertex="1">
          <mxGeometry x="100" y="123" width="64" height="64" as="geometry" />
        </mxCell>
        <mxCell id="5_k-YT-q-z1sVr0RyAKI-40" value="NAT Gateway" style="text;html=1;align=center;verticalAlign=middle;resizable=0;points=[];autosize=1;strokeColor=none;fillColor=none;" parent="5_k-YT-q-z1sVr0RyAKI-32" vertex="1">
          <mxGeometry x="82" y="190" width="100" height="30" as="geometry" />
        </mxCell>
        <mxCell id="5_k-YT-q-z1sVr0RyAKI-42" value="" style="sketch=0;outlineConnect=0;fontColor=#232F3E;gradientColor=none;fillColor=#8C4FFF;strokeColor=none;dashed=0;verticalLabelPosition=bottom;verticalAlign=top;align=center;html=1;fontSize=12;fontStyle=0;aspect=fixed;pointerEvents=1;shape=mxgraph.aws4.nat_gateway;" parent="5_k-YT-q-z1sVr0RyAKI-32" vertex="1">
          <mxGeometry x="670" y="123" width="64" height="64" as="geometry" />
        </mxCell>
        <mxCell id="5_k-YT-q-z1sVr0RyAKI-44" value="" style="rounded=0;whiteSpace=wrap;html=1;dashed=1;perimeterSpacing=0;fillColor=none;strokeColor=#FF9933;strokeWidth=2;" parent="5_k-YT-q-z1sVr0RyAKI-32" vertex="1">
          <mxGeometry x="195" y="75" width="450" height="140" as="geometry" />
        </mxCell>
        <mxCell id="5_k-YT-q-z1sVr0RyAKI-41" value="" style="sketch=0;outlineConnect=0;fontColor=#232F3E;gradientColor=none;fillColor=#ED7100;strokeColor=none;dashed=0;verticalLabelPosition=bottom;verticalAlign=top;align=center;html=1;fontSize=12;fontStyle=0;aspect=fixed;pointerEvents=1;shape=mxgraph.aws4.auto_scaling2;" parent="5_k-YT-q-z1sVr0RyAKI-32" vertex="1">
          <mxGeometry x="396" y="80" width="48" height="48" as="geometry" />
        </mxCell>
        <mxCell id="5_k-YT-q-z1sVr0RyAKI-60" value="Auto Scaling Group" style="text;html=1;align=center;verticalAlign=middle;resizable=0;points=[];autosize=1;strokeColor=none;fillColor=none;" parent="5_k-YT-q-z1sVr0RyAKI-32" vertex="1">
          <mxGeometry x="355" y="123" width="130" height="30" as="geometry" />
        </mxCell>
        <mxCell id="5_k-YT-q-z1sVr0RyAKI-71" value="Azure Bastion" style="text;html=1;align=center;verticalAlign=middle;resizable=0;points=[];autosize=1;strokeColor=none;fillColor=none;" parent="5_k-YT-q-z1sVr0RyAKI-32" vertex="1">
          <mxGeometry x="225" y="180" width="100" height="30" as="geometry" />
        </mxCell>
        <mxCell id="5_k-YT-q-z1sVr0RyAKI-72" value="Azure Bastion" style="text;html=1;align=center;verticalAlign=middle;resizable=0;points=[];autosize=1;strokeColor=none;fillColor=none;" parent="5_k-YT-q-z1sVr0RyAKI-32" vertex="1">
          <mxGeometry x="525" y="180" width="100" height="30" as="geometry" />
        </mxCell>
        <mxCell id="5_k-YT-q-z1sVr0RyAKI-104" value="&lt;font style=&quot;font-size: 14px;&quot; color=&quot;#b3b3b3&quot;&gt;Optional bastion access&lt;/font&gt;" style="text;html=1;align=center;verticalAlign=middle;resizable=0;points=[];autosize=1;strokeColor=none;fillColor=none;" parent="5_k-YT-q-z1sVr0RyAKI-32" vertex="1">
          <mxGeometry x="335" y="180" width="170" height="30" as="geometry" />
        </mxCell>
        <mxCell id="jHHWez1aKjKvFsPRnYN8-2" value="&lt;font color=&quot;#009900&quot;&gt;10.0.144.0/20&lt;/font&gt;" style="text;html=1;align=center;verticalAlign=middle;resizable=0;points=[];autosize=1;strokeColor=none;fillColor=none;" vertex="1" parent="5_k-YT-q-z1sVr0RyAKI-32">
          <mxGeometry x="585" y="250" width="100" height="30" as="geometry" />
        </mxCell>
        <mxCell id="jHHWez1aKjKvFsPRnYN8-3" value="&lt;font color=&quot;#007fff&quot;&gt;10.0.0.0/19&lt;/font&gt;" style="text;html=1;align=center;verticalAlign=middle;resizable=0;points=[];autosize=1;strokeColor=none;fillColor=none;" vertex="1" parent="5_k-YT-q-z1sVr0RyAKI-32">
          <mxGeometry x="165" y="570" width="80" height="30" as="geometry" />
        </mxCell>
        <mxCell id="jHHWez1aKjKvFsPRnYN8-5" value="" style="image;aspect=fixed;html=1;points=[];align=center;fontSize=12;image=img/lib/azure2/networking/Bastions.svg;" vertex="1" parent="5_k-YT-q-z1sVr0RyAKI-32">
          <mxGeometry x="240" y="100" width="57.99999999999999" height="68" as="geometry" />
        </mxCell>
        <mxCell id="jHHWez1aKjKvFsPRnYN8-6" value="" style="image;aspect=fixed;html=1;points=[];align=center;fontSize=12;image=img/lib/azure2/networking/Bastions.svg;" vertex="1" parent="5_k-YT-q-z1sVr0RyAKI-32">
          <mxGeometry x="546" y="100" width="57.99999999999999" height="68" as="geometry" />
        </mxCell>
        <mxCell id="5_k-YT-q-z1sVr0RyAKI-65" value="" style="strokeWidth=2;html=1;shape=mxgraph.flowchart.annotation_2;align=left;labelPosition=right;pointerEvents=1;rotation=-180;" parent="5_k-YT-q-z1sVr0RyAKI-32" vertex="1">
          <mxGeometry x="260" y="415" width="130" height="100" as="geometry" />
        </mxCell>
        <mxCell id="5_k-YT-q-z1sVr0RyAKI-67" value="Azure Database &lt;br&gt;PostgreSQL" style="text;html=1;align=center;verticalAlign=middle;resizable=0;points=[];autosize=1;strokeColor=none;fillColor=none;" parent="5_k-YT-q-z1sVr0RyAKI-32" vertex="1">
          <mxGeometry x="365" y="500" width="110" height="40" as="geometry" />
        </mxCell>
        <mxCell id="jHHWez1aKjKvFsPRnYN8-9" value="" style="image;aspect=fixed;html=1;points=[];align=center;fontSize=12;image=img/lib/azure2/databases/Azure_Database_PostgreSQL_Server.svg;" vertex="1" parent="5_k-YT-q-z1sVr0RyAKI-32">
          <mxGeometry x="396" y="433" width="48" height="64" as="geometry" />
        </mxCell>
        <mxCell id="jHHWez1aKjKvFsPRnYN8-15" value="" style="image;aspect=fixed;html=1;points=[];align=center;fontSize=12;image=img/lib/azure2/databases/Azure_Database_PostgreSQL_Server.svg;" vertex="1" parent="5_k-YT-q-z1sVr0RyAKI-32">
          <mxGeometry x="210" y="380" width="48" height="64" as="geometry" />
        </mxCell>
        <mxCell id="jHHWez1aKjKvFsPRnYN8-16" value="" style="image;aspect=fixed;html=1;points=[];align=center;fontSize=12;image=img/lib/azure2/databases/Azure_Database_PostgreSQL_Server.svg;" vertex="1" parent="5_k-YT-q-z1sVr0RyAKI-32">
          <mxGeometry x="210" y="476" width="48" height="64" as="geometry" />
        </mxCell>
        <mxCell id="5_k-YT-q-z1sVr0RyAKI-109" value="DB readers" style="text;html=1;align=center;verticalAlign=middle;resizable=0;points=[];autosize=1;strokeColor=none;fillColor=none;" parent="5_k-YT-q-z1sVr0RyAKI-32" vertex="1">
          <mxGeometry x="195" y="550" width="80" height="30" as="geometry" />
        </mxCell>
        <mxCell id="5_k-YT-q-z1sVr0RyAKI-61" value="Security group" style="fillColor=none;strokeColor=#DD3522;verticalAlign=top;fontStyle=0;fontColor=#DD3522;whiteSpace=wrap;html=1;" parent="5_k-YT-q-z1sVr0RyAKI-32" vertex="1">
          <mxGeometry x="155" y="360" width="530" height="190" as="geometry" />
        </mxCell>
        <mxCell id="5_k-YT-q-z1sVr0RyAKI-8" value="Azure Cloud Services" style="text;html=1;align=center;verticalAlign=middle;resizable=0;points=[];autosize=1;strokeColor=none;fillColor=none;" parent="1" vertex="1">
          <mxGeometry x="106.77" y="25.5" width="140" height="30" as="geometry" />
        </mxCell>
        <mxCell id="5_k-YT-q-z1sVr0RyAKI-10" value="" style="image;aspect=fixed;html=1;points=[];align=center;fontSize=12;image=img/lib/azure2/compute/Cloud_Services_Classic.svg;" parent="1" vertex="1">
          <mxGeometry x="50" y="20" width="56.77" height="41" as="geometry" />
        </mxCell>
        <mxCell id="5_k-YT-q-z1sVr0RyAKI-105" value="" style="image;sketch=0;aspect=fixed;html=1;points=[];align=center;fontSize=12;image=img/lib/mscae/Service_Bus.svg;" parent="1" vertex="1">
          <mxGeometry x="950" y="150" width="80" height="80" as="geometry" />
        </mxCell>
        <mxCell id="5_k-YT-q-z1sVr0RyAKI-106" value="Azure Service Bus" style="text;html=1;align=center;verticalAlign=middle;resizable=0;points=[];autosize=1;strokeColor=none;fillColor=none;" parent="1" vertex="1">
          <mxGeometry x="930" y="243" width="120" height="30" as="geometry" />
        </mxCell>
        <mxCell id="5_k-YT-q-z1sVr0RyAKI-107" value="" style="image;aspect=fixed;html=1;points=[];align=center;fontSize=12;image=img/lib/azure2/monitor/SAP_Azure_Monitor.svg;" parent="1" vertex="1">
          <mxGeometry x="946.25" y="310" width="87.5" height="70" as="geometry" />
        </mxCell>
        <mxCell id="5_k-YT-q-z1sVr0RyAKI-108" value="Azure Monitor" style="text;html=1;align=center;verticalAlign=middle;resizable=0;points=[];autosize=1;strokeColor=none;fillColor=none;" parent="1" vertex="1">
          <mxGeometry x="940" y="390" width="100" height="30" as="geometry" />
        </mxCell>
        <mxCell id="5_k-YT-q-z1sVr0RyAKI-112" value="Azure Key Vaults" style="text;html=1;align=center;verticalAlign=middle;resizable=0;points=[];autosize=1;strokeColor=none;fillColor=none;" parent="1" vertex="1">
          <mxGeometry x="935" y="500" width="110" height="30" as="geometry" />
        </mxCell>
        <mxCell id="jHHWez1aKjKvFsPRnYN8-7" value="" style="image;aspect=fixed;html=1;points=[];align=center;fontSize=12;image=img/lib/azure2/security/Key_Vaults.svg;rotation=-90;" vertex="1" parent="1">
          <mxGeometry x="956" y="432" width="68" height="68" as="geometry" />
        </mxCell>
      </root>
    </mxGraphModel>
  </diagram>
</mxfile>
